<svg width="135" height="103" viewBox="0 0 135 103" fill="none" xmlns="http://www.w3.org/2000/svg">
    <g clip-path="url(#clip0_97_217)">
        <path d="M53.1008 16.941L55.8078 14.7311C57.0366 15.4881 58.4866 15.9301 60.045 15.9301C64.4798 15.9301 68.0767 12.3613 68.0767 7.96503C68.0767 3.56875 64.4798 0 60.045 0C55.6101 0 52.0132 3.56875 52.0132 7.96503C52.0132 9.77057 52.6205 11.4397 53.6422 12.7751L48.5341 16.941H53.1008Z" fill="url(#paint0_linear_97_217)"/>
        <path d="M54.6073 29.9276H82.563C85.2465 26.9137 89.2059 25.0612 93.5984 25.2163C100.698 25.4702 106.578 31.1078 107.105 38.1842C107.237 39.9803 107.035 41.7106 106.545 43.3187L112.397 47.4234V20.9658C112.397 19.5364 111.239 18.3798 109.808 18.3798H45.6387C44.2075 18.3798 43.0493 19.5364 43.0493 20.9658V49.7321C46.5944 48.0535 50.4926 47.005 54.6073 46.7323V29.9229V29.9276Z" fill="url(#paint1_linear_97_217)"/>
        <path d="M100.839 50.9734V76.1004H88.6081C88.6693 76.9185 88.7022 77.7461 88.7022 78.583C88.7022 81.7286 88.2456 84.7707 87.3934 87.6436H109.483C111.093 87.6436 112.397 86.3411 112.397 84.7331V57.2598L102.525 49.6663C101.997 50.1412 101.437 50.5784 100.839 50.9734Z" fill="url(#paint2_linear_97_217)"/>
        <path d="M126.22 53.014C123.64 53.014 121.319 54.1237 119.713 55.8963L102.741 43.5161C103.32 42.2137 103.64 40.7702 103.64 39.2515C103.64 33.4259 98.909 28.7004 93.0758 28.7004C87.2427 28.7004 82.5112 33.4259 82.5112 39.2515C82.5112 40.8502 82.869 42.3689 83.5093 43.7277L68.9759 57.4385C65.3744 55.3555 61.1937 54.1613 56.7353 54.1613C51.3918 54.1613 46.4485 55.8728 42.4279 58.7785L31.4255 52.0454C32.7672 49.638 33.5346 46.8639 33.5346 43.9111C33.5346 40.6339 32.593 37.5776 30.9641 34.9963L41.5993 26.3166V22.5927L29.2174 32.6924C26.1479 29.2976 21.7083 27.1629 16.765 27.1629C7.50915 27.1676 0 34.6672 0 43.9158C0 53.1645 7.50915 60.664 16.7697 60.664C19.7357 60.664 22.518 59.8929 24.9332 58.5481L33.6429 70.5615C32.7672 73.0723 32.2917 75.7712 32.2917 78.583C32.2917 92.0681 43.2377 103 56.74 103C70.2424 103 81.1883 92.0681 81.1883 78.583C81.1883 72.7385 79.131 67.3783 75.7036 63.1748L86.6448 47.6256C88.4244 48.9939 90.656 49.8073 93.0758 49.8073C96.4656 49.8073 99.4786 48.2134 101.414 45.7354L118.188 58.2425C117.708 59.324 117.439 60.5229 117.439 61.7831C117.439 66.626 121.371 70.5521 126.22 70.5521C131.069 70.5521 135 66.626 135 61.7831C135 56.9401 131.069 53.014 126.22 53.014Z" fill="url(#paint3_linear_97_217)"/>
    </g>
    <defs>
        <linearGradient id="paint0_linear_97_217" x1="20.6772" y1="-53.1222" x2="178.825" y2="218.669" gradientUnits="userSpaceOnUse">
            <stop offset="0.18" stop-color="#00AEF5"/>
            <stop offset="1" stop-color="#2D2B96"/>
        </linearGradient>
        <linearGradient id="paint1_linear_97_217" x1="25.9454" y1="-53.7522" x2="181.588" y2="213.734" gradientUnits="userSpaceOnUse">
            <stop offset="0.18" stop-color="#00AEF5"/>
            <stop offset="1" stop-color="#2D2B96"/>
        </linearGradient>
        <linearGradient id="paint2_linear_97_217" x1="26.9812" y1="-52.5344" x2="180.651" y2="211.564" gradientUnits="userSpaceOnUse">
            <stop offset="0.18" stop-color="#00AEF5"/>
            <stop offset="1" stop-color="#2D2B96"/>
        </linearGradient>
        <linearGradient id="paint3_linear_97_217" x1="9.01099" y1="-46.3373" x2="167.158" y2="225.459" gradientUnits="userSpaceOnUse">
            <stop offset="0.18" stop-color="#00AEF5"/>
            <stop offset="1" stop-color="#2D2B96"/>
        </linearGradient>
        <clipPath id="clip0_97_217">
            <rect width="135" height="103" fill="white"/>
        </clipPath>
    </defs>
</svg>